<svg width="133" height="57" viewBox="0 0 133 57" fill="none" xmlns="http://www.w3.org/2000/svg">
<path d="M1.48737 23.5525C1.21344 23.3862 0.987978 23.1509 0.833544 22.8701C0.67911 22.5893 0.601117 22.2729 0.607367 21.9525C0.603286 21.5022 0.681223 21.0549 0.837367 20.6325C1.13719 19.4492 1.28835 18.2332 1.28737 17.0125C1.28737 16.5325 1.28737 16.0125 1.22737 15.4825C1.15737 14.4825 1.09737 12.7125 1.05737 10.3125C1.0909 9.78614 0.980266 9.26062 0.737367 8.79248C0.610976 8.55156 0.542497 8.28449 0.537367 8.01248C0.341633 7.77419 0.194929 7.49956 0.105689 7.20438C0.0164494 6.9092 -0.0135666 6.5993 0.0173671 6.29248C-0.028646 5.96736 0.017208 5.63586 0.149746 5.33544C0.282283 5.03502 0.496218 4.77767 0.767367 4.59248C1.13175 4.45849 1.51974 4.40063 1.90737 4.42248C2.29342 4.38344 2.68193 4.46744 3.01737 4.66248C3.1952 4.70784 3.35539 4.80536 3.47737 4.94248C3.7027 5.16289 3.96724 5.33925 4.25737 5.46248C4.75205 5.45875 5.24489 5.40176 5.72737 5.29248C6.01814 5.24391 6.31257 5.22048 6.60737 5.22248C8.92737 5.39248 10.1974 5.50248 10.4574 5.50248C10.6433 5.52623 10.8315 5.52623 11.0174 5.50248C11.1252 5.48499 11.2321 5.46162 11.3374 5.43248C11.9733 5.16886 12.6498 5.01664 13.3374 4.98248C13.8094 4.89646 14.2877 4.84964 14.7674 4.84248C14.9974 4.84248 15.2874 4.84248 15.6174 4.91248C16.1814 4.92189 16.7292 5.10331 17.1874 5.43248C17.4142 5.69113 17.5293 6.02915 17.5074 6.37248C17.4772 6.61175 17.3987 6.84238 17.2766 7.05038C17.1546 7.25838 16.9915 7.43941 16.7974 7.58248C16.5212 7.91029 16.1659 8.16223 15.7652 8.31446C15.3645 8.4667 14.9316 8.5142 14.5074 8.45248C14.0388 8.45564 13.5707 8.42221 13.1074 8.35248C12.6306 8.28116 12.1494 8.24439 11.6674 8.24248C11.0433 8.24787 10.4209 8.3081 9.80737 8.42248C9.05737 8.49248 8.20737 8.52248 7.32737 8.52248C6.91932 8.53617 6.51151 8.48899 6.11737 8.38248C5.6648 8.30669 5.20615 8.27321 4.74737 8.28248V8.76248C4.74532 9.28704 4.71528 9.81112 4.65737 10.3325C4.58737 11.5125 4.55737 12.9325 4.55737 14.5625V18.7825C4.55205 18.9693 4.58393 19.1553 4.65115 19.3297C4.71837 19.5041 4.8196 19.6634 4.94894 19.7984C5.07828 19.9333 5.23316 20.0411 5.40456 20.1157C5.57597 20.1902 5.76048 20.2299 5.94737 20.2325L10.7574 20.1225C11.5591 20.1725 12.3635 20.088 13.1374 19.8725C13.7704 19.7281 14.4181 19.6577 15.0674 19.6625C17.0174 19.6225 18.0174 20.0125 18.0174 20.8125C18.0246 21.084 17.9439 21.3506 17.7874 21.5725C17.5166 22.0862 17.0988 22.5074 16.5874 22.7825C16.0622 23.0106 15.4863 23.0968 14.9174 23.0325C14.0074 23.0325 13.1574 23.0325 12.3374 22.9225C11.6728 22.8559 11.0053 22.8226 10.3374 22.8225C9.70028 22.8236 9.06452 22.8804 8.43737 22.9925C7.78171 23.1479 7.11112 23.2318 6.43737 23.2425L4.48737 23.0125C4.26459 23.1174 4.04761 23.2343 3.83737 23.3625C3.422 23.6511 2.94041 23.8299 2.43737 23.8825C2.09359 23.8767 1.76067 23.7611 1.48737 23.5525ZM22.3774 32.1625C22.1193 31.6021 21.9118 31.0198 21.7574 30.4225C21.716 30.1342 21.6926 29.8437 21.6874 29.5525C21.6933 29.0311 21.7267 28.5104 21.7874 27.9925L21.6274 5.11248C21.538 4.43873 21.2409 3.80957 20.7774 3.31248C20.6174 3.17248 20.4474 3.00248 20.3174 2.86248C20.1354 2.63681 20.0428 2.35203 20.0574 2.06248C20.0783 1.64173 20.1351 1.22353 20.2274 0.812481C20.3574 0.292481 20.8074 0.0424805 21.6274 0.0424805C21.8574 0.0424805 22.1174 0.0424805 22.4074 0.11248C23.5069 0.18135 24.5783 0.488442 25.5474 1.01248C25.5074 1.44619 25.4406 1.87702 25.3474 2.30248C25.3474 2.47248 25.3474 5.91248 25.3474 12.6425C26.1292 12.6184 26.9066 12.5145 27.6674 12.3325C28.3526 12.1864 29.0479 12.0928 29.7474 12.0525C29.8899 12.0308 30.0349 12.0308 30.1774 12.0525C30.5336 12.0878 30.863 12.2573 31.0988 12.5266C31.3347 12.7958 31.4593 13.1447 31.4474 13.5025C31.4976 13.8046 31.4488 14.1149 31.3082 14.3871C31.1676 14.6592 30.9428 14.8786 30.6674 15.0125C30.2332 15.1432 29.7804 15.2007 29.3274 15.1825L28.3274 15.1125H26.7574C26.1074 15.1125 25.6174 15.1125 25.3274 15.1125V26.6425L25.3874 27.5425L25.2974 28.6925C25.0616 29.5699 24.6611 30.3946 24.1174 31.1225C23.5674 32.1225 23.1674 32.5725 22.9774 32.5725C22.7874 32.5725 22.5774 32.4425 22.3774 32.1625Z" fill="#F9F5E9"/>
<path d="M36.0173 19.2127C35.5206 18.8008 35.1699 18.2397 35.0173 17.6127C35.0173 17.2327 35.3473 16.8827 36.0173 16.5427C36.4961 16.1015 37.1012 15.8217 37.7473 15.7427C38.4208 15.7723 39.0902 15.8627 39.7473 16.0127C40.6011 16.2248 41.4776 16.3322 42.3573 16.3327C42.8473 16.3327 45.5573 16.2627 50.4473 16.2227V13.6527H48.9173C48.0453 13.6583 47.1737 13.6116 46.3073 13.5127C41.7673 12.6827 39.5173 10.5927 39.5173 7.30268C39.4908 6.02094 39.9316 4.77334 40.7573 3.79268C41.1991 3.34584 41.7356 3.00408 42.3273 2.79268C42.827 2.59026 43.3004 2.32837 43.7373 2.01268C44.0189 1.79025 44.3281 1.60537 44.6573 1.46268C46.5826 0.749389 48.6064 0.337867 50.6573 0.242676C52.792 0.26873 54.9203 0.482892 57.0173 0.882676L57.3773 0.932676C59.843 1.27002 62.1281 2.41257 63.8773 4.18268C64.3386 4.67848 64.5864 5.33576 64.5673 6.01268C64.5461 7.28767 64.2204 8.53911 63.6173 9.66268C62.9913 10.6019 62.1638 11.3898 61.1952 11.9693C60.2265 12.5488 59.141 12.9052 58.0173 13.0127C56.7073 13.2227 55.3373 13.3627 53.9373 13.4627C53.9373 13.7727 53.9373 14.1527 53.8673 14.6127V16.1727L64.3873 16.0627C64.8315 16.0364 65.2695 15.9455 65.6873 15.7927C66.163 15.6355 66.6572 15.5413 67.1573 15.5127C67.4532 15.5183 67.7398 15.6162 67.9773 15.7927C68.1325 15.9106 68.2595 16.0615 68.3494 16.2344C68.4393 16.4073 68.4899 16.5979 68.4973 16.7927C68.4922 17.0394 68.4233 17.2805 68.2973 17.4927C68.0639 17.9528 67.7099 18.341 67.2731 18.6158C66.8364 18.8905 66.3332 19.0415 65.8173 19.0527C65.4273 19.0527 64.9673 18.9527 64.4173 18.8427C63.8673 18.7327 63.5673 18.6727 63.2373 18.6327C48.9773 18.7427 41.3073 18.8427 40.1673 18.9127C39.855 18.9862 39.5477 19.0797 39.2473 19.1927C38.5959 19.4776 37.8976 19.6403 37.1873 19.6727C36.9714 19.679 36.7563 19.6415 36.5553 19.5624C36.3542 19.4833 36.1712 19.3644 36.0173 19.2127ZM40.3873 30.6627C40.147 29.7364 40.0592 28.7772 40.1273 27.8227C40.1273 26.6427 40.1273 25.6727 40.1973 24.9727C40.1273 24.8327 40.0973 24.6927 40.0273 24.5527C39.9573 24.4127 39.9273 24.2827 39.8973 24.1427C39.8673 24.0027 39.7973 23.8927 39.6673 23.7627C39.529 23.634 39.4199 23.4771 39.3473 23.3027C39.1914 22.9153 39.0905 22.508 39.0473 22.0927C39.0485 21.9373 39.0826 21.7839 39.1473 21.6427C39.4073 21.1927 40.5173 20.9827 42.5073 20.9827C42.5773 20.9827 42.6073 20.9827 42.6373 20.9827H42.8973C43.4273 20.9827 43.7173 21.5027 43.7173 22.5127V28.3827C44.3373 28.3827 45.0873 28.4527 46.0373 28.4527C46.3973 28.4527 46.9473 28.4527 47.6673 28.3427L49.4373 28.2427L51.4373 27.9327C52.1268 27.9398 52.815 27.9933 53.4973 28.0927C54.1597 28.1892 54.828 28.2393 55.4973 28.2427C56.7512 28.2552 58.0044 28.1783 59.2473 28.0127C60.2739 28.0032 61.299 27.9331 62.3173 27.8027C63.1655 27.5458 64.0421 27.3946 64.9273 27.3527C65.7073 27.5927 66.0673 28.0127 66.0673 28.6727C66.0456 29.1928 65.8756 29.696 65.5773 30.1227C65.3443 30.3896 65.0519 30.5983 64.7237 30.732C64.3956 30.8658 64.0406 30.9208 63.6873 30.8927C63.4873 30.8927 63.1273 30.8927 62.5773 30.8227C62.0273 30.7527 60.9773 30.7127 59.4373 30.6427H55.7873C55.0499 30.6254 54.3135 30.7061 53.5973 30.8827C53.2029 30.9875 52.7953 31.0346 52.3873 31.0227L49.2873 30.9227C48.6073 30.9227 47.3673 30.9227 45.5673 30.9927C45.1112 30.9624 44.6535 30.9624 44.1973 30.9927L43.0173 31.1927C42.6262 31.319 42.2184 31.3864 41.8073 31.3927C41.5287 31.39 41.2546 31.3226 41.0064 31.1959C40.7583 31.0693 40.5429 30.8867 40.3773 30.6627H40.3873ZM58.6873 9.87268C60.1873 9.04268 60.9473 8.03268 60.9473 6.87268C60.9706 6.56436 60.9126 6.25533 60.7793 5.97637C60.6459 5.6974 60.4419 5.45823 60.1873 5.28268C59.6821 4.94855 59.1192 4.71119 58.5273 4.58268L57.3473 4.17268C55.6055 3.52726 53.7535 3.23162 51.8973 3.30268C51.4773 3.30268 51.0473 3.30268 50.6273 3.30268C45.5673 3.69268 43.0173 5.08268 43.0173 7.54268C43.0579 8.14914 43.2969 8.72542 43.6973 9.18268C44.2112 9.7782 44.8788 10.221 45.6273 10.4627C47.1582 10.8754 48.7433 11.0507 50.3273 10.9827C54.3173 11.0127 57.0873 10.6027 58.6873 9.87268Z" fill="#F9F5E9"/>
<path d="M72.0173 17.8927C71.9098 17.7409 71.8537 17.5587 71.8573 17.3727C71.914 16.9105 72.0831 16.4691 72.3499 16.0873C72.6166 15.7056 72.9728 15.395 73.3873 15.1827C74.044 14.5346 74.6152 13.8054 75.0873 13.0127C75.7422 12.1958 76.29 11.2985 76.7173 10.3427L79.5573 6.34272C79.9194 5.65261 80.1436 4.89856 80.2173 4.12272C80.3073 2.63272 80.8973 1.90272 82.0073 1.90272C82.5917 1.90482 83.1697 2.02382 83.7073 2.25272C84.7873 2.59272 85.3073 3.15272 85.3073 3.91272C85.1795 4.70965 84.8012 5.44518 84.2273 6.01272C83.5736 6.77839 82.9627 7.57961 82.3973 8.41272C80.769 11.5267 78.5552 14.2973 75.8773 16.5727C74.4673 17.8527 73.4573 18.5127 72.8773 18.5127C72.6928 18.492 72.5167 18.4241 72.366 18.3155C72.2154 18.2069 72.0953 18.0613 72.0173 17.8927ZM74.5674 32.7827C74.1074 32.7127 73.8173 32.2627 73.7173 31.3927C73.6945 31.1291 73.7502 30.8647 73.8773 30.6327C74.1264 30.3952 74.3247 30.1097 74.4605 29.7935C74.5963 29.4773 74.6666 29.1369 74.6673 28.7927C74.6673 28.1027 74.5974 27.2327 74.4974 26.2627C74.4974 25.5627 74.6973 25.1127 75.1173 24.9027C75.1173 24.6627 75.3473 24.5227 75.7073 24.4227C76.4296 24.2921 77.1644 24.2452 77.8973 24.2827C78.3656 24.268 78.8319 24.3497 79.2673 24.5227C79.6373 24.6803 80.0352 24.7619 80.4373 24.7627C80.7973 24.7627 81.2573 24.7627 81.7773 24.7627C82.4952 24.8326 83.2161 24.866 83.9373 24.8627C84.5473 24.8833 85.1577 24.8363 85.7573 24.7227C86.4183 24.6121 87.0872 24.5552 87.7573 24.5527C88.8389 24.5776 89.9177 24.6711 90.9873 24.8327C92.9053 24.821 94.8188 24.6471 96.7073 24.3127L96.6374 23.5127C96.5774 22.9927 96.4774 22.7127 96.3174 22.6727C96.1574 22.6327 95.7573 22.5727 95.1673 22.5027C94.1217 22.3794 93.0702 22.3127 92.0173 22.3027C91.228 22.336 90.4424 22.4296 89.6673 22.5827C88.6769 22.7637 87.6739 22.8674 86.6673 22.8927C85.7473 22.8927 84.6673 22.8927 83.5973 22.7827H81.2474C81.0845 22.7999 80.9202 22.7999 80.7573 22.7827L78.1173 22.7127C77.4415 22.6866 76.766 22.771 76.1173 22.9627C75.8372 23.0737 75.5387 23.1313 75.2373 23.1327C74.8173 23.1327 74.4573 22.8527 74.1573 22.2627C73.9591 22.1155 73.7942 21.9281 73.6736 21.7126C73.5529 21.4972 73.4792 21.2587 73.4573 21.0127C73.4573 20.1427 74.3073 19.6927 76.0073 19.6927C76.2338 19.678 76.4609 19.678 76.6873 19.6927L77.9573 19.5227C78.522 19.4959 79.087 19.5669 79.6273 19.7327C80.2821 19.8892 80.9544 19.9598 81.6273 19.9427C82.3356 19.9472 83.0434 19.9105 83.7474 19.8327C84.3374 19.8327 84.7473 19.7627 85.0273 19.7627C85.7005 19.7067 86.3688 19.6031 87.0273 19.4527C87.7574 19.2873 88.5 19.1836 89.2474 19.1427C90.192 19.1359 91.1334 19.2535 92.0473 19.4927C92.9777 19.7125 93.9315 19.8166 94.8874 19.8027C95.3714 19.8176 95.8553 19.7706 96.3273 19.6627C97.203 19.3864 98.1042 19.1988 99.0173 19.1027C99.2426 19.1121 99.4619 19.1774 99.6557 19.2926C99.8494 19.4078 100.012 19.5693 100.127 19.7627C100.466 20.2465 100.667 20.8135 100.707 21.4027C100.682 21.749 100.594 22.0878 100.447 22.4027C100.199 23.0719 100.067 23.7789 100.057 24.4927V24.6227C100.238 24.8173 100.375 25.0482 100.46 25.2999C100.544 25.5517 100.574 25.8185 100.547 26.0827C100.577 26.3131 100.557 26.5471 100.49 26.7694C100.423 26.9916 100.309 27.1973 100.157 27.3727C99.6229 27.6428 99.0243 27.7604 98.4274 27.7127C97.9423 27.714 97.4588 27.6569 96.9873 27.5427C96.6138 27.4569 96.2301 27.4232 95.8473 27.4427L92.6774 27.5427L90.4274 27.4727C89.1839 27.4431 87.9423 27.5844 86.7373 27.8927C86.3538 28.001 85.9556 28.0482 85.5573 28.0327C85.2073 28.0327 84.8474 28.0327 84.4573 27.9627C84.0673 27.8927 83.7373 27.8527 83.3473 27.8227C82.9573 27.7927 82.4973 27.7127 81.9073 27.6827L80.0173 27.5727C79.4373 27.5727 79.0173 27.5727 78.8473 27.5727C78.5862 27.5813 78.3258 27.6047 78.0673 27.6427C78.0673 28.7227 78.2874 29.2727 78.7474 29.2727H78.8773C79.6573 29.2727 80.2773 29.2727 80.7673 29.2727C81.2573 29.2727 81.6873 29.2727 81.9773 29.2727C82.6146 29.2942 83.2496 29.361 83.8773 29.4727C84.8773 29.5827 85.4673 29.6527 85.7673 29.6527C86.3573 29.6527 88.0173 29.5127 90.6973 29.2727L94.1573 29.0627C94.6056 29.0696 95.053 29.103 95.4974 29.1627C96.1593 29.2666 96.8275 29.3267 97.4974 29.3427C97.932 29.3359 98.3633 29.2651 98.7773 29.1327C99.1878 28.9997 99.6159 28.9289 100.047 28.9227C100.333 28.9079 100.615 28.9812 100.857 29.1327C101.106 29.2899 101.313 29.5046 101.461 29.7588C101.609 30.0129 101.693 30.299 101.707 30.5927C101.706 30.8026 101.676 31.0112 101.617 31.2127C101.416 31.6426 101.082 31.9962 100.664 32.2214C100.246 32.4465 99.767 32.5311 99.2973 32.4627C98.7276 32.4668 98.1587 32.4199 97.5973 32.3227C96.5973 32.2527 95.5973 32.2227 94.4673 32.2227C93.3373 32.2227 92.4673 32.2227 91.7173 32.3227C89.6354 32.5892 87.5253 32.542 85.4573 32.1827C84.3166 32.0394 83.1667 31.9826 82.0173 32.0127C80.3371 31.9196 78.6524 32.0746 77.0173 32.4727C76.3768 32.7064 75.6991 32.8216 75.0173 32.8127L74.5674 32.7827ZM87.2973 16.6027C86.7806 16.1913 86.32 15.7139 85.9274 15.1827C85.1161 14.3635 84.2174 13.6358 83.2474 13.0127C82.6389 12.6387 82.1255 12.1287 81.7474 11.5227C81.6643 11.2985 81.6203 11.0618 81.6173 10.8227C81.6173 10.2327 82.0374 9.95272 82.9274 9.95272C83.5734 9.99646 84.1985 10.1991 84.7474 10.5427C86.0514 11.1819 87.308 11.9138 88.5073 12.7327C90.2373 13.9527 91.0873 14.8827 91.0873 15.6127C91.0651 15.9404 90.9766 16.2602 90.8273 16.5527C90.4673 17.3827 89.9773 17.8027 89.3573 17.8027C88.5757 17.5943 87.8643 17.1799 87.2973 16.6027ZM97.2973 18.4427C96.702 17.5044 96.4185 16.4019 96.4873 15.2927C96.4873 14.9427 96.4873 14.6327 96.5473 14.2927L96.4873 10.5427L92.4873 10.8227C92.0877 10.8927 91.683 10.9295 91.2773 10.9327H91.0173C90.2373 10.9327 89.7473 10.6827 89.5773 10.1627C89.5187 9.78216 89.4887 9.39776 89.4873 9.01272C89.4873 8.14272 90.0673 7.72272 91.2773 7.72272C93.1073 7.72272 94.8373 7.79272 96.4673 7.79272L96.4073 5.26272C96.393 4.90658 96.3079 4.55687 96.1568 4.23406C96.0056 3.91125 95.7917 3.62182 95.5273 3.38272C95.2839 3.20849 95.0853 2.97891 94.948 2.71291C94.8106 2.44691 94.7384 2.15209 94.7373 1.85272C94.7048 1.60426 94.7297 1.35166 94.81 1.11431C94.8903 0.876963 95.024 0.661173 95.2007 0.483509C95.3774 0.305846 95.5924 0.171034 95.8294 0.089423C96.0663 0.00781216 96.3187 -0.0184272 96.5674 0.0127192C97.1186 0.0242171 97.6662 0.104847 98.1973 0.252719L98.4974 0.362719C98.7705 0.403032 99.041 0.459802 99.3073 0.532719C99.9973 0.672719 100.307 0.912719 100.417 1.19272C100.418 1.52859 100.385 1.86365 100.317 2.19272C100.245 2.49795 100.201 2.80933 100.187 3.12272C100.187 3.71272 100.257 5.42272 100.257 8.26272C100.257 8.89272 100.257 9.44272 100.257 9.93272C100.257 10.4227 100.187 11.0127 100.187 11.6027L100.257 13.4027V14.2327V15.6927C100.262 16.2038 100.163 16.7106 99.9673 17.1827L99.5473 17.8127L98.9573 18.6127C98.7985 18.8192 98.5652 18.9556 98.3073 18.9927C98.1061 19.0119 97.9037 18.9696 97.727 18.8714C97.5502 18.7732 97.4074 18.6237 97.3174 18.4427H97.2973Z" fill="#F9F5E9"/>
<path d="M114.637 25.9125C114.474 25.7551 114.347 25.5651 114.262 25.3548C114.178 25.1446 114.139 24.9189 114.147 24.6925C114.186 23.8339 114.372 22.9883 114.697 22.1925L115.317 19.5925C115.497 18.9096 115.728 18.241 116.007 17.5925C116.137 16.9725 116.237 16.5225 116.327 16.2025C116.53 15.6543 116.664 15.0834 116.727 14.5025C116.854 13.6452 117.048 12.7992 117.307 11.9725C117.538 11.4519 117.703 10.9043 117.797 10.3425C117.897 9.47254 118.027 8.63254 118.157 7.80254C117.363 7.99824 116.559 8.14848 115.747 8.25254C114.915 8.47809 114.059 8.60562 113.197 8.63254C112.946 8.62512 112.696 8.60509 112.447 8.57254C112.164 8.55244 111.88 8.55244 111.597 8.57254C111.307 8.56166 111.018 8.60927 110.747 8.71254C110.439 8.82335 110.126 8.91683 109.807 8.99254C109.378 9.09004 108.938 9.13702 108.497 9.13254C107.967 9.17397 107.438 9.04106 106.99 8.75404C106.543 8.46702 106.201 8.04161 106.017 7.54254C105.853 7.23457 105.763 6.89179 105.757 6.54254C105.757 5.60254 106.377 5.12254 107.617 5.12254C108.241 5.12955 108.863 5.1864 109.477 5.29254C110.088 5.43145 110.711 5.50189 111.337 5.50254C111.709 5.48905 112.079 5.45567 112.447 5.40254C112.447 5.26254 113.397 5.19254 115.257 5.19254C116.186 5.21858 117.113 5.12447 118.017 4.91254C118.161 4.7012 118.367 4.5403 118.607 4.45254C119.005 4.25814 119.436 4.14267 119.877 4.11254C120.259 4.10577 120.638 4.18599 120.984 4.34711C121.331 4.50822 121.636 4.74603 121.877 5.04254C122.41 5.6253 122.757 6.35248 122.877 7.13254C122.877 7.37254 122.877 7.47254 122.877 7.51254C122.803 8.04446 122.619 8.55518 122.337 9.01254C121.989 9.78162 121.77 10.6025 121.687 11.4425C121.486 12.8377 121.053 14.1895 120.407 15.4425C119.79 16.8404 119.343 18.3077 119.077 19.8125C118.965 20.4816 118.777 21.1357 118.517 21.7625C118.255 22.4382 118.048 23.1338 117.897 23.8425C117.407 25.9625 116.757 27.0025 115.977 27.0025C115.673 26.9693 115.384 26.8488 115.146 26.6554C114.909 26.462 114.732 26.204 114.637 25.9125ZM128.307 30.4625C128.246 30.1328 128.215 29.798 128.217 29.4625C128.225 28.9734 128.269 28.4854 128.347 28.0025L128.177 5.16254L127.987 4.36254C127.856 3.9708 127.617 3.62413 127.297 3.36254C127.136 3.19894 126.986 3.02526 126.847 2.84254C126.661 2.59335 126.578 2.28139 126.617 1.97254C126.622 1.63743 126.653 1.30318 126.707 0.972539C126.877 0.382539 127.367 0.102539 128.177 0.102539C129.061 0.184562 129.934 0.348602 130.787 0.592539C131.677 0.802539 132.097 1.01254 132.097 1.25254C131.978 1.7789 131.901 2.31393 131.867 2.85254V26.7025C131.867 27.0825 131.927 27.4625 131.927 27.7725V28.6425C131.703 29.7583 131.186 30.7939 130.427 31.6425C130.037 32.3025 129.737 32.6425 129.577 32.6425C129.017 32.5725 128.667 31.8825 128.307 30.4625Z" fill="#F9F5E9"/>
<path d="M25.4373 50.7925C25.1974 50.8034 24.9577 50.7653 24.733 50.6806C24.5083 50.5959 24.3031 50.4663 24.13 50.2998C23.957 50.1333 23.8196 49.9333 23.7263 49.712C23.633 49.4906 23.5857 49.2527 23.5873 49.0125C23.5895 48.6001 23.728 48.2 23.9812 47.8744C24.2344 47.5489 24.5881 47.3162 24.9873 47.2125C25.2673 47.1025 25.2273 47.0025 24.9873 46.7925C24.2973 46.8425 23.6873 46.8925 23.4673 46.8925C23.2672 46.8958 23.0696 46.8468 22.8942 46.7503C22.7189 46.6538 22.5717 46.5133 22.4673 46.3425L22.6273 46.1525C22.9426 46.2906 23.283 46.3621 23.6273 46.3625C24.0073 46.3625 24.6273 46.3625 25.3473 46.3625C26.0673 46.3625 26.7973 46.2225 27.0773 46.1925C27.5173 46.1925 28.1373 46.2525 28.0773 46.4425C28.0173 46.6325 27.8773 46.8525 27.7473 46.8525C26.9608 46.7467 26.1637 46.7467 25.3773 46.8525C25.4495 46.8921 25.5115 46.9479 25.5583 47.0156C25.6052 47.0833 25.6357 47.161 25.6473 47.2425C25.6473 47.4725 25.4273 47.6025 25.0573 47.7425C24.7662 47.831 24.5115 48.0112 24.3313 48.2563C24.151 48.5014 24.0549 48.7983 24.0573 49.1025C24.0573 49.442 24.1921 49.7676 24.4322 50.0076C24.6722 50.2476 24.9978 50.3825 25.3373 50.3825C25.6768 50.3825 26.0023 50.2476 26.2424 50.0076C26.4824 49.7676 26.6173 49.442 26.6173 49.1025C26.6206 48.8157 26.5387 48.5343 26.3821 48.294C26.2255 48.0537 26.0011 47.8652 25.7373 47.7525L25.9473 47.5125C26.3075 47.5719 26.6363 47.7533 26.8785 48.0265C27.1207 48.2996 27.2615 48.6478 27.2773 49.0125C27.2803 49.2522 27.2342 49.49 27.142 49.7112C27.0498 49.9325 26.9134 50.1326 26.7411 50.2993C26.5688 50.466 26.3643 50.5957 26.1401 50.6805C25.9159 50.7653 25.6767 50.8034 25.4373 50.7925ZM23.9273 44.7925L24.0973 44.5825C24.3696 44.6963 24.6621 44.7541 24.9573 44.7525C25.3173 44.7525 25.6773 44.5425 26.0373 44.5125C26.3973 44.4825 26.7173 44.6925 26.7173 44.8425C26.7061 44.9242 26.677 45.0024 26.632 45.0716C26.5871 45.1407 26.5274 45.1991 26.4573 45.2425C26.0473 45.2425 25.2973 45.2425 24.8973 45.2425C24.7113 45.2441 24.5275 45.2036 24.3594 45.1239C24.1914 45.0442 24.0437 44.9275 23.9273 44.7825V44.7925ZM31.2573 53.6225C31.2573 54.2219 31.0192 54.7967 30.5953 55.2206C30.1715 55.6444 29.5967 55.8825 28.9973 55.8825C28.3979 55.8825 27.8231 55.6444 27.3992 55.2206C26.9754 54.7967 26.7373 54.2219 26.7373 53.6225C26.7589 53.098 26.9484 52.5943 27.2778 52.1856C27.6073 51.777 28.0593 51.4849 28.5673 51.3525C28.8473 51.2425 28.7473 51.0725 28.5173 50.9025L28.6473 50.6825C28.9873 50.8025 29.2973 51.0425 29.2973 51.3125C29.2973 51.5825 29.0873 51.7025 28.6973 51.8425C28.3176 51.9634 27.9853 52.2 27.7468 52.5192C27.5083 52.8384 27.3756 53.2241 27.3673 53.6225C27.3496 53.848 27.3788 54.0746 27.453 54.2883C27.5271 54.5019 27.6447 54.6979 27.7982 54.864C27.9518 55.03 28.138 55.1625 28.3452 55.2531C28.5524 55.3437 28.7761 55.3905 29.0023 55.3905C29.2284 55.3905 29.4521 55.3437 29.6593 55.2531C29.8666 55.1625 30.0528 55.03 30.2063 54.864C30.3599 54.6979 30.4774 54.5019 30.5516 54.2883C30.6258 54.0746 30.6549 53.848 30.6373 53.6225C30.6378 53.2364 30.5148 52.8602 30.2863 52.549C30.0579 52.2377 29.7358 52.0077 29.3673 51.8925L29.6173 51.6125C30.0832 51.6977 30.5038 51.9455 30.8041 52.3117C31.1044 52.678 31.265 53.1389 31.2573 53.6125V53.6225ZM31.4273 44.0125C31.4273 44.3425 31.4273 44.6525 31.4273 45.0825V49.2025C31.4104 49.8805 31.3028 50.5531 31.1073 51.2025H30.8673V47.7825H29.3773V48.1625C29.3595 48.8338 29.238 49.4983 29.0173 50.1325H28.7973V45.4725C28.812 45.2184 28.778 44.9639 28.6973 44.7225C28.4771 44.3876 28.1739 44.1154 27.8173 43.9325L27.9473 43.7125C28.5473 43.8125 29.3573 44.2325 29.3573 44.7125C29.3573 45.0325 29.3573 45.3525 29.3573 45.7825V47.2825H30.8473V44.7825C30.8648 44.5297 30.8377 44.2759 30.7673 44.0325C30.5019 43.6204 30.1419 43.2775 29.7173 43.0325L29.8373 42.8125C30.4573 42.8925 31.4273 43.4825 31.4273 44.0125Z" fill="#F9F5E9"/>
<path d="M44.3972 50.3126C44.3972 50.5226 44.1772 50.6926 43.8272 50.6526C43.4813 50.5234 43.1164 50.4524 42.7472 50.4426C42.3072 50.4426 40.9772 50.4426 39.4972 50.5026C38.0172 50.5626 35.6172 50.7926 35.0772 50.8526C34.7962 50.8485 34.5205 50.7751 34.2746 50.6391C34.0287 50.503 33.8201 50.3085 33.6672 50.0726L33.8572 49.9026C34.1938 50.1132 34.5804 50.2305 34.9772 50.2426C35.2372 50.2426 37.6972 50.1226 38.9072 50.0626V48.3626H37.6772C37.5718 48.3637 37.4681 48.336 37.3772 48.2826C37.3665 48.4038 37.3308 48.5215 37.2722 48.6282C37.2137 48.735 37.1337 48.8284 37.0372 48.9026H36.8772V45.0626C36.8772 44.6926 36.4772 44.5126 35.9872 44.3626L36.0872 44.1026C36.6072 44.1026 37.4572 44.2226 37.4572 44.7226C37.4572 45.0526 37.4572 45.2926 37.4572 45.7226V47.9126C37.5601 47.927 37.6644 47.927 37.7672 47.9126L40.1872 47.8226C40.3672 47.8226 40.6272 47.7726 40.7972 47.7726H40.9472V46.0726C40.9458 46.1007 40.9353 46.1276 40.9173 46.1493C40.8992 46.1709 40.8747 46.1861 40.8472 46.1926C40.6694 46.1529 40.4851 46.1529 40.3072 46.1926L38.1672 46.2926C38.0406 46.2866 37.9201 46.2362 37.8268 46.1503C37.7336 46.0644 37.6735 45.9484 37.6572 45.8226L37.7472 45.6926C37.879 45.7541 38.0219 45.7881 38.1672 45.7926L39.9572 45.7226C40.1472 45.7226 40.2972 45.6526 40.4772 45.6426C40.5743 45.6304 40.6726 45.6502 40.7574 45.6989C40.8423 45.7476 40.9089 45.8226 40.9472 45.9126V45.0126C40.9717 44.7696 40.9444 44.5243 40.8672 44.2926C40.6256 44.0028 40.3117 43.782 39.9572 43.6526L40.0572 43.4126C40.6172 43.4126 41.5572 43.7326 41.5572 44.2226C41.5572 44.5526 41.5572 44.8626 41.5572 45.2926V47.9726C41.5698 48.1386 41.5407 48.3051 41.4726 48.4571C41.4045 48.609 41.2995 48.7415 41.1672 48.8426L40.9972 48.7926V48.3126C40.8574 48.3019 40.717 48.3019 40.5772 48.3126H39.5772V48.7926C39.5329 49.2026 39.4662 49.6099 39.3772 50.0126L42.6272 49.8426C43.0647 49.8085 43.5047 49.8286 43.9372 49.9026C44.2472 50.0126 44.4072 50.1426 44.3972 50.3126ZM41.8372 52.5026V53.8626C41.8387 54.5406 41.7376 55.2149 41.5372 55.8626H41.2572V52.6726C41.2572 52.3726 41.1672 52.3026 40.7872 52.3126C40.4072 52.3226 37.7172 52.5226 37.1972 52.5226C36.9934 52.534 36.7905 52.4863 36.6131 52.3852C36.4357 52.284 36.2913 52.1338 36.1972 51.9526L36.3772 51.7826C36.604 51.9154 36.8649 51.978 37.1272 51.9626C37.8372 51.9626 40.2772 51.7626 40.8972 51.7426C41.2372 51.7226 41.8372 52.2026 41.8372 52.5026Z" fill="#F9F5E9"/>
<path d="M45.2573 49.1928L45.4373 49.0028C45.8003 49.2144 46.2079 49.3377 46.6273 49.3628C47.2073 49.3628 49.6273 49.2228 50.7073 49.1628L54.2273 49.0128C54.6644 48.976 55.1043 48.9928 55.5373 49.0628C55.8473 49.1328 56.0073 49.2928 55.9973 49.4628C55.9873 49.6328 55.7773 49.8428 55.4273 49.7928C55.0768 49.6676 54.7092 49.5968 54.3373 49.5828C53.9073 49.5828 52.5773 49.5828 51.0973 49.6428C49.6173 49.7028 47.1773 49.9328 46.6373 49.9928C46.3576 49.9908 46.0833 49.916 45.8413 49.7757C45.5993 49.6354 45.398 49.4345 45.2573 49.1928ZM47.8973 52.8528L48.0073 52.6928C48.2937 52.8428 48.6143 52.9152 48.9373 52.9028C49.2073 52.9028 49.9373 52.9028 50.5273 52.9028C51.1173 52.9028 51.8873 52.8328 52.3073 52.7728C52.5186 52.7307 52.7361 52.7307 52.9473 52.7728C53.1773 52.8328 53.2673 52.9728 53.2673 53.1028C53.2701 53.1648 53.2488 53.2255 53.2077 53.2721C53.1667 53.3188 53.1092 53.3477 53.0473 53.3528C52.3823 53.2875 51.7124 53.2875 51.0473 53.3528L48.6973 53.4528C48.5192 53.4444 48.3477 53.3827 48.2051 53.2758C48.0624 53.1688 47.9552 53.0214 47.8973 52.8528ZM52.6173 52.4528C52.6597 52.141 52.6864 51.8272 52.6973 51.5128C52.6973 51.4028 52.6973 51.3628 52.5473 51.3628C51.9973 51.3628 49.1773 51.5028 48.8473 51.5228C48.6773 51.5337 48.509 51.4832 48.3732 51.3804C48.2373 51.2776 48.143 51.1294 48.1073 50.9628L48.2473 50.8328C48.4798 50.9694 48.7483 51.0322 49.0173 51.0128C49.3573 51.0128 50.0173 51.0128 50.6573 50.9628C51.2973 50.9128 52.3473 50.8328 52.5473 50.8328C52.7473 50.8328 53.3473 51.1828 53.3473 51.3928C53.3056 51.8054 53.1537 52.1992 52.9073 52.5328L52.6173 52.4528ZM50.8573 43.7128C50.8573 43.9628 50.6373 44.1328 50.2673 44.2628C49.8852 44.3696 49.5484 44.5984 49.3083 44.9143C49.0682 45.2302 48.9379 45.616 48.9373 46.0128C48.9373 46.4477 49.1101 46.8649 49.4177 47.1724C49.7252 47.48 50.1424 47.6528 50.5773 47.6528C51.0123 47.6528 51.4294 47.48 51.737 47.1724C52.0445 46.8649 52.2173 46.4477 52.2173 46.0128C52.2254 45.6322 52.114 45.2587 51.8987 44.9448C51.6835 44.6309 51.3752 44.3924 51.0173 44.2628L51.2273 43.9928C51.5896 44.1277 51.9081 44.3592 52.1483 44.6621C52.3885 44.9649 52.5413 45.3278 52.5903 45.7112C52.6392 46.0947 52.5823 46.4843 52.4257 46.8378C52.2692 47.1912 52.019 47.4952 51.7022 47.7168C51.3854 47.9383 51.014 48.069 50.6283 48.0947C50.2426 48.1204 49.8571 48.0402 49.5137 47.8627C49.1703 47.6851 48.882 47.4171 48.6799 47.0875C48.4779 46.7579 48.3698 46.3794 48.3673 45.9928C48.3782 45.4754 48.561 44.9763 48.887 44.5744C49.2129 44.1724 49.6634 43.8904 50.1673 43.7728C50.4673 43.6728 50.4073 43.5228 50.1673 43.3028L50.3073 43.0928C50.5673 43.2328 50.8573 43.4328 50.8573 43.7128ZM48.4173 54.9028V54.3128C48.4262 54.134 48.4059 53.955 48.3573 53.7828L48.5773 53.6728C48.7109 53.7116 48.8269 53.7957 48.9053 53.9106C48.9838 54.0256 49.0198 54.1642 49.0073 54.3028V54.6928C49.0073 54.9228 49.0073 54.9728 49.2173 54.9728C49.7773 54.9728 51.3073 54.9728 51.9573 54.9028C52.2363 54.8863 52.5137 54.8495 52.7873 54.7928C53.0253 54.7207 53.2793 54.7207 53.5173 54.7928C53.5763 54.809 53.629 54.8428 53.6682 54.8897C53.7074 54.9367 53.7313 54.9945 53.7368 55.0554C53.7422 55.1163 53.7289 55.1775 53.6986 55.2306C53.6683 55.2838 53.6225 55.3264 53.5673 55.3528C53.2573 55.3528 49.7273 55.4328 49.0873 55.4328C48.7873 55.4528 48.4173 55.1728 48.4173 54.9028Z" fill="#F9F5E9"/>
<path d="M65.6073 49.1625L63.4273 49.2925C63.3234 49.2947 63.2217 49.2631 63.1373 49.2025C63.133 49.3394 63.1005 49.4739 63.0421 49.5978C62.9836 49.7216 62.9003 49.8322 62.7973 49.9225L62.6373 49.8625V45.9325C62.6373 45.5725 62.2173 45.3825 61.7373 45.2325L61.8373 44.9825C62.3573 44.9825 63.2073 45.0925 63.2073 45.6025C63.2073 45.9225 63.2073 46.1625 63.2073 46.6025V48.8025C63.3092 48.8267 63.4154 48.8267 63.5173 48.8025L65.3273 48.7025C65.5173 48.7025 65.7673 48.6525 65.9473 48.6525H66.0173V46.9325C66.0173 47.0025 65.9673 47.0525 65.9173 47.0625C65.7407 47.002 65.5528 46.9815 65.3673 47.0025L63.8373 47.1025C63.711 47.0973 63.5903 47.0487 63.4956 46.9649C63.4008 46.8811 63.3379 46.7673 63.3173 46.6425L63.4173 46.5125C63.5474 46.5787 63.6914 46.6129 63.8373 46.6125L65.0173 46.5425C65.1973 46.5425 65.3473 46.4725 65.5373 46.4525C65.6337 46.4449 65.7302 46.4666 65.8141 46.5148C65.8979 46.563 65.9653 46.6354 66.0073 46.7225V45.7225C66.0347 45.4787 66.0038 45.232 65.9173 45.0025C65.6784 44.7118 65.3684 44.4878 65.0173 44.3525L65.1173 44.1125C65.6673 44.1125 66.5973 44.4425 66.5973 44.9325C66.5973 45.2625 66.5973 45.5725 66.5973 46.0025V48.8325C66.6127 48.9993 66.586 49.1672 66.5196 49.321C66.4532 49.4747 66.3493 49.6094 66.2173 49.7125L66.0173 49.6825V49.1725C65.8814 49.1544 65.7439 49.151 65.6073 49.1625ZM63.8973 55.6025L63.7173 55.3125C64.9317 54.628 65.9961 53.7065 66.8473 52.6025C66.9304 52.5167 66.9769 52.4019 66.9769 52.2825C66.9769 52.163 66.9304 52.0483 66.8473 51.9625L67.0773 51.8825C67.4473 51.9925 67.8973 52.3625 67.6073 52.7425C66.5796 53.9398 65.3168 54.9133 63.8973 55.6025ZM65.1673 51.2225C65.5173 51.2225 66.0873 51.2225 66.8873 51.1425C67.8873 51.0725 68.7773 50.9525 68.9773 50.9225C69.1515 50.8756 69.3347 50.874 69.5097 50.9177C69.6847 50.9615 69.8457 51.0492 69.9773 51.1725C69.9961 51.2071 70.0076 51.2451 70.0112 51.2843C70.0148 51.3235 70.0104 51.363 69.9982 51.4004C69.986 51.4378 69.9664 51.4724 69.9404 51.502C69.9145 51.5315 69.8828 51.5555 69.8473 51.5725C68.847 51.5186 67.844 51.542 66.8473 51.6425C66.0373 51.6425 65.2873 51.7525 64.9873 51.7525C64.8064 51.752 64.629 51.7025 64.474 51.6091C64.3191 51.5158 64.1923 51.3822 64.1073 51.2225L64.2873 51.0525C64.5677 51.1626 64.866 51.2202 65.1673 51.2225ZM70.2873 55.0125C70.2873 55.3825 69.9373 55.4925 69.8173 55.4225C69.6373 54.8725 68.0473 53.8425 67.2873 53.4225L67.5573 53.2125C68.2573 53.5525 69.0273 53.8825 69.4773 54.1225C69.9273 54.3625 70.2973 54.6725 70.2873 55.0125ZM68.1673 43.0125L68.2973 42.7925C68.9473 42.8725 69.9373 43.5125 69.9373 44.0825C69.9373 44.4125 69.9373 44.7225 69.9373 45.1525V48.2025C69.9182 48.881 69.8072 49.5538 69.6073 50.2025H69.3573V44.8825C69.3784 44.629 69.3477 44.3738 69.2673 44.1325C69.0032 43.6707 68.6243 43.2849 68.1673 43.0125Z" fill="#F9F5E9"/>
<path d="M72.4373 49.5827L72.6173 49.4127C72.9581 49.6219 73.3475 49.7391 73.7473 49.7527C74.0173 49.7527 76.7473 49.6127 77.8773 49.5527L81.3973 49.3727C81.8347 49.3389 82.2747 49.359 82.7073 49.4327C83.0173 49.5027 83.1773 49.6527 83.1673 49.8227C83.1573 49.9927 82.9373 50.2027 82.5973 50.1627C82.2492 50.0289 81.8801 49.9578 81.5073 49.9527C81.0773 49.9527 79.7473 49.9527 78.2673 50.0027C76.7873 50.0527 74.3873 50.3027 73.8473 50.3627C73.5661 50.3594 73.29 50.2865 73.044 50.1504C72.7979 50.0142 72.5894 49.8192 72.4373 49.5827ZM74.3673 44.0127C74.9673 44.0127 75.9473 44.1827 75.9473 44.6827C75.9473 44.9327 75.9473 45.1027 75.9473 45.3027V46.5827C75.9473 47.0027 75.9473 47.2027 76.4373 47.1827L78.9073 47.1127C79.2441 47.0894 79.5785 47.0393 79.9073 46.9627C80.0942 46.8873 80.2982 46.8642 80.4972 46.8959C80.6963 46.9276 80.883 47.0129 81.0373 47.1427C81.0645 47.1769 81.084 47.2166 81.0943 47.2591C81.1046 47.3015 81.1055 47.3458 81.0969 47.3886C81.0884 47.4315 81.0705 47.472 81.0447 47.5072C81.0188 47.5425 80.9856 47.5716 80.9473 47.5927C80.5773 47.5927 76.9473 47.6827 76.4873 47.6827C76.3447 47.7029 76.1995 47.692 76.0615 47.6509C75.9235 47.6097 75.796 47.5393 75.6878 47.4443C75.5795 47.3494 75.4931 47.2322 75.4343 47.1007C75.3755 46.9693 75.3458 46.8267 75.3473 46.6827V45.0927C75.3473 44.6827 74.9473 44.5027 74.3473 44.3127L74.3673 44.0127ZM74.6973 51.6127C75.3373 51.5527 76.3373 51.5227 76.3373 52.1727C76.3373 52.4227 76.3373 52.5827 76.3373 52.7927V54.2127C76.3373 54.6227 76.3373 54.8427 76.8373 54.8327L79.1573 54.7727C79.5314 54.7537 79.903 54.7002 80.2673 54.6127C80.4542 54.5247 80.6622 54.4912 80.8674 54.5159C81.0725 54.5407 81.2666 54.6228 81.4273 54.7527C81.4576 54.7883 81.4801 54.83 81.4931 54.875C81.5062 54.9199 81.5095 54.9671 81.5028 55.0135C81.4962 55.0598 81.4798 55.1042 81.4547 55.1438C81.4296 55.1833 81.3964 55.217 81.3573 55.2427C81.1673 55.2427 77.0673 55.3227 76.8873 55.3227C76.7447 55.3429 76.5994 55.332 76.4615 55.2909C76.3235 55.2497 76.196 55.1793 76.0878 55.0843C75.9795 54.9894 75.8931 54.8722 75.8343 54.7407C75.7755 54.6093 75.7458 54.4667 75.7473 54.3227V52.3727C75.7473 52.0927 75.3973 51.9927 74.6773 51.8627L74.6973 51.6127Z" fill="#F9F5E9"/>
<path d="M89.5474 45.7228C89.4011 45.7176 89.2591 45.6718 89.1372 45.5906C89.0154 45.5094 88.9185 45.3959 88.8574 45.2628L89.0174 45.1028C89.2139 45.2065 89.436 45.2516 89.6574 45.2328C90.113 45.2116 90.5671 45.1649 91.0174 45.0928C91.3574 45.0328 91.6674 45.0928 91.6574 45.2628C91.6583 45.3502 91.633 45.4359 91.5849 45.5089C91.5368 45.582 91.4681 45.639 91.3874 45.6728C90.774 45.6275 90.1575 45.6443 89.5474 45.7228ZM92.3774 49.1628C91.8083 49.6631 91.1192 50.0077 90.3774 50.1628C90.1474 50.1628 89.6574 49.7528 89.6574 49.4928V46.9128C89.6752 46.64 89.5935 46.3699 89.4274 46.1528L89.5574 45.9928C89.7974 45.9928 90.2574 46.2328 90.2574 46.6328V49.1528C90.2574 49.5028 90.2574 49.5928 90.4974 49.5928C91.1479 49.5072 91.7703 49.2747 92.3174 48.9128L92.3774 49.1628ZM97.2274 52.0128V54.0128C97.2119 54.6566 97.111 55.2955 96.9274 55.9128H96.6474V52.2128C96.6474 51.9128 96.5574 51.8428 96.1774 51.8628C95.7974 51.8828 93.2874 52.0628 92.8074 52.0728C92.6025 52.0833 92.3989 52.034 92.2214 51.9311C92.0439 51.8281 91.9001 51.6759 91.8074 51.4928L91.9874 51.3128C92.2681 51.4458 92.5772 51.5076 92.8874 51.4928C93.4974 51.4928 95.6674 51.3028 96.2874 51.2728C96.6274 51.2428 97.2274 51.6928 97.2274 52.0128ZM91.8974 45.0928L92.0574 44.9428C92.2756 45.0466 92.5161 45.0947 92.7574 45.0828C93.2109 45.0582 93.662 45.0014 94.1074 44.9128C94.4974 44.8528 94.8974 44.9128 94.8674 45.0828C94.8673 45.1764 94.8397 45.2679 94.7882 45.3461C94.7367 45.4243 94.6634 45.4857 94.5774 45.5228C93.9468 45.4398 93.308 45.4398 92.6774 45.5228C92.5175 45.5334 92.358 45.4963 92.2191 45.4162C92.0803 45.336 91.9683 45.2165 91.8974 45.0728V45.0928ZM92.5174 49.3128V46.7628C92.5293 46.4952 92.4441 46.2324 92.2774 46.0228L92.4174 45.8628C92.5824 45.8731 92.7386 45.9407 92.8591 46.0539C92.9796 46.1671 93.0568 46.3188 93.0774 46.4828V48.9528C93.0774 49.3028 93.0774 49.4028 93.3574 49.4028C94.1404 49.3607 94.9094 49.1778 95.6274 48.8628L95.7474 49.1028C95.0218 49.5835 94.1988 49.8976 93.3374 50.0228C93.0774 50.0128 92.5174 49.5528 92.5174 49.2928V49.3128ZM97.2874 44.0128C97.2874 44.3428 97.2874 44.6528 97.2874 45.0828V48.7428C97.2681 49.4213 97.1571 50.094 96.9574 50.7428H96.7074V47.1228C96.2189 47.2325 95.7249 47.316 95.2274 47.3728C95.0729 47.355 94.9247 47.3015 94.7945 47.2165C94.6643 47.1314 94.5557 47.0171 94.4774 46.8828L94.6174 46.6928C94.8893 46.8048 95.1852 46.8461 95.4774 46.8128L96.7074 46.6728V44.8128C96.7256 44.56 96.6985 44.306 96.6274 44.0628C96.3747 43.6575 96.0327 43.3154 95.6274 43.0628L95.7474 42.8428C96.3074 42.8928 97.2874 43.4828 97.2874 44.0128Z" fill="#F9F5E9"/>
<path d="M100.517 50.2428L100.307 49.9628C101.946 48.8616 103.358 47.4562 104.467 45.8228C104.677 45.4328 104.607 45.3128 104.307 45.3128C103.787 45.3128 102.157 45.6028 101.697 45.5828C101.513 45.5666 101.336 45.5029 101.183 45.3977C101.031 45.2925 100.908 45.1495 100.827 44.9828L101.027 44.7528C101.272 44.8992 101.553 44.9721 101.837 44.9628C102.517 44.9628 103.837 44.7228 104.367 44.7228C104.677 44.7228 105.367 45.3028 105.367 45.5828C105.348 45.7708 105.279 45.9504 105.167 46.1028C103.924 47.7928 102.34 49.2032 100.517 50.2428ZM108.607 51.2428C108.607 51.5628 108.607 51.9028 108.607 52.3428V55.0128C108.628 55.1844 108.604 55.3584 108.537 55.5179C108.471 55.6774 108.364 55.8169 108.227 55.9228L108.067 55.8528V55.3628H107.647L105.087 55.4628C104.986 55.4671 104.886 55.4429 104.797 55.3928C104.801 55.536 104.771 55.678 104.708 55.8069C104.645 55.9357 104.553 56.0475 104.437 56.1328L104.277 56.0628V52.0628C104.277 51.6928 103.907 51.5128 103.487 51.4128L103.557 51.1828C103.977 51.1828 104.867 51.2528 104.867 51.7028C104.867 52.1528 104.867 52.3528 104.867 52.7928V55.0128C104.961 55.0575 105.064 55.0781 105.167 55.0728L107.367 54.9928C107.557 54.9928 107.797 54.9328 107.977 54.9328H108.017V53.0928C108.017 53.1428 108.017 53.1928 107.917 53.2028C107.741 53.1423 107.553 53.1218 107.367 53.1428L105.437 53.2628C105.311 53.2618 105.19 53.216 105.094 53.1336C104.999 53.0511 104.936 52.9374 104.917 52.8128L105.017 52.6828C105.147 52.7509 105.291 52.7853 105.437 52.7828L107.027 52.6928C107.207 52.6928 107.357 52.6228 107.547 52.6128C107.644 52.6022 107.742 52.6227 107.826 52.6712C107.911 52.7197 107.978 52.7938 108.017 52.8828V51.6128C108.017 51.1928 107.667 50.9628 107.227 50.7628L107.307 50.5228C107.737 50.5428 108.607 50.7428 108.607 51.2028V51.2428ZM105.307 48.4428C105.627 48.6628 105.967 48.9428 105.967 49.3328C105.978 49.3999 105.97 49.4687 105.944 49.5316C105.919 49.5945 105.876 49.6492 105.821 49.6895C105.767 49.7298 105.702 49.7542 105.634 49.7601C105.566 49.7659 105.498 49.753 105.437 49.7228C105.159 49.0155 104.662 48.4161 104.017 48.0128L104.297 47.7628C104.707 48.0128 105.017 48.1928 105.307 48.4028V48.4428ZM108.707 44.0728C108.707 44.4028 108.707 44.7128 108.707 45.1428V48.0128C108.692 48.6924 108.577 49.3662 108.367 50.0128H108.127V44.8128C108.148 44.5593 108.118 44.3041 108.037 44.0628C107.785 43.6575 107.443 43.3154 107.037 43.0628L107.167 42.8428C107.717 42.8928 108.707 43.4628 108.707 44.0128V44.0728Z" fill="#F9F5E9"/>
</svg>
